<?xml version="1.0" standalone="no"?>
<!DOCTYPE svg PUBLIC "-//W3C//DTD SVG 20010904//EN"
 "http://www.w3.org/TR/2001/REC-SVG-20010904/DTD/svg10.dtd">
<svg version="1.0" xmlns="http://www.w3.org/2000/svg"
 width="129.000000pt" height="129.000000pt" viewBox="0 0 129.000000 129.000000"
 preserveAspectRatio="xMidYMid meet">
<metadata>
Created by potrace 1.14, written by Peter Selinger 2001-2017
</metadata>
<g transform="translate(0.000000,129.000000) scale(0.100000,-0.100000)"
fill="#000000" stroke="none">
<path d="M570 1287 c-3 -3 -21 -7 -40 -10 -46 -7 -109 -25 -140 -40 -83 -39
-230 -152 -230 -178 0 -7 -3 -10 -6 -6 -4 3 -16 -8 -28 -26 -34 -52 -88 -157
-80 -157 5 0 3 -5 -4 -12 -7 -7 -12 -22 -12 -35 0 -13 -4 -23 -9 -23 -5 0 -9
-10 -10 -22 0 -13 -2 -63 -4 -113 -4 -94 12 -195 38 -245 9 -16 15 -32 14 -35
-3 -16 79 -138 120 -179 66 -66 114 -106 129 -106 6 0 12 -4 12 -9 0 -5 8 -11
18 -14 9 -3 44 -17 77 -30 33 -14 76 -29 95 -33 49 -10 222 -15 216 -6 -2 4
10 7 27 6 37 -2 170 39 160 49 -3 4 2 7 12 7 18 0 88 38 93 52 2 4 8 8 13 8
13 0 108 96 140 140 54 77 117 229 104 251 -4 5 -2 9 4 9 11 0 9 213 -3 264
-10 43 -53 143 -82 193 -24 41 -109 133 -164 178 -35 28 -171 95 -193 95 -10
0 -27 5 -38 10 -20 11 -220 26 -229 17z"/>
</g>
</svg>
